<?xml version="1.0" encoding="utf-8"?>
<!-- Generator: Adobe Illustrator 15.1.0, SVG Export Plug-In . SVG Version: 6.00 Build 0)  -->
<!DOCTYPE svg PUBLIC "-//W3C//DTD SVG 1.1//EN" "http://www.w3.org/Graphics/SVG/1.1/DTD/svg11.dtd">
<svg version="1.1" id="Layer_1" xmlns="http://www.w3.org/2000/svg" xmlns:xlink="http://www.w3.org/1999/xlink" x="0px" y="0px"
	 width="1000px" height="1000px" viewBox="0 0 1000 1000" enable-background="new 0 0 1000 1000" xml:space="preserve">
<g id="NewGroupe0_80_">
	<g>
		<path fill="#5F646A" d="M310.282,325.643l4.445,24.671c1.883,10.446,11.971,17.452,22.416,15.57l6.057-1.091l318.447-57.385
			l6.056-1.091c10.446-1.883,17.453-11.969,15.57-22.416l-4.445-24.671c-1.55-8.597-9.851-14.363-18.447-12.813
			c-14.24,2.565-28.686-2.463-38.562-13.039c-23.778-25.465-66.932-39.96-115.654-37.562l-0.959-5.32
			c-2.785-15.46-17.713-25.829-33.173-23.043c-15.46,2.786-25.83,17.714-23.043,33.173l0.958,5.321
			c-46.496,14.759-81.874,43.408-95.268,75.57c-5.563,13.357-17.344,23.113-31.585,25.679
			C314.498,308.745,308.733,317.047,310.282,325.643L310.282,325.643z"/>
		<path fill="#5F646A" d="M316.229,483.805c-18.279,0-33.151-14.872-33.151-33.151c0-18.281,14.872-33.151,33.151-33.151h21.982
			v66.302H316.229L316.229,483.805z M661.789,417.503h21.982c18.278,0,33.15,14.871,33.15,33.151
			c0,18.279-14.872,33.151-33.15,33.151h-21.982V417.503L661.789,417.503z M406.635,671h186.73
			c37.632,0,68.424-30.791,68.424-68.424V509.35h21.982c32.668,0,59.189-26.827,58.689-59.608
			c-0.492-32.207-27.371-57.784-59.582-57.784h-21.09h-16.391H354.602h-16.39h-21.09c-32.211,0-59.09,25.578-59.582,57.784
			c-0.5,32.782,26.021,59.608,58.689,59.608h21.982v93.227C338.211,640.209,369.002,671,406.635,671L406.635,671z"/>
		<path fill="#5F646A" d="M645.508,334.732c-87.974-7.294-110.858,35.904-110.858,35.904
			c85.235-28.034,156.239-1.101,189.264-24.804c33.025-23.704-13.106-80.542-13.106-80.542S733.481,342.026,645.508,334.732
			L645.508,334.732z"/>
	</g>
</g>
</svg>
